<svg width="34" height="34" viewBox="0 0 34 34" fill="none" xmlns="http://www.w3.org/2000/svg">
<mask id="path-1-inside-1_211_2338" fill="white">
<path d="M20.0111 16.7646C19.8435 16.7646 19.6879 16.7185 19.5496 16.6444V16.6463C19.5496 16.91 19.4471 17.1577 19.2612 17.3431C19.0752 17.5291 18.8277 17.6316 18.5643 17.6316C18.3943 17.6316 18.2367 17.5844 18.097 17.5083C18.0828 17.7495 17.9864 17.975 17.8144 18.1472C17.6284 18.3332 17.381 18.4357 17.1174 18.4357C16.5938 18.4357 16.1685 18.024 16.1379 17.5081C15.9759 17.5957 15.7927 17.6416 15.6037 17.6295C15.0886 17.5957 14.6852 17.1506 14.6852 16.616V12.1844L14.1806 13.0586C13.9884 13.393 13.6286 13.6006 13.2412 13.6006C13.0525 13.6006 12.866 13.5511 12.7009 13.4564C12.4952 13.3372 12.3481 13.1458 12.287 12.9169C12.2255 12.6878 12.2573 12.4482 12.3762 12.2429C12.3763 12.2429 14.0273 9.38395 14.128 9.20834C14.1399 9.18194 14.1741 9.10536 14.2031 9.04009C14.2308 8.97777 14.2546 8.91381 14.2774 8.84953C14.7752 7.44397 16.008 6.57087 17.4947 6.57087C19.4254 6.57087 20.9961 8.27408 20.9961 10.3676L20.9963 15.7791C20.9963 16.0425 20.894 16.29 20.7082 16.4761C20.5222 16.6621 20.2747 16.7646 20.0111 16.7646L20.0111 16.7646ZM17.4948 7.09441C16.2172 7.09441 15.199 7.816 14.7708 9.02462C14.7435 9.10137 14.7149 9.17811 14.6816 9.2529C14.585 9.46953 14.585 9.46953 14.5578 9.50069L14.5542 9.49757C14.4194 9.75192 14.0189 10.4454 12.8295 12.5049C12.7806 12.5893 12.7677 12.6874 12.7926 12.7812C12.8179 12.875 12.8784 12.954 12.9622 13.0024C13.2223 13.1518 13.5785 13.0554 13.7267 12.7971L14.7203 11.0768C14.7797 10.9743 14.8997 10.924 15.0149 10.9551C15.1293 10.9858 15.2089 11.0896 15.2089 11.208V16.6161C15.2089 16.8713 15.4014 17.0915 15.6381 17.1071C15.7745 17.1143 15.9018 17.0686 15.9974 16.9731C16.0843 16.8862 16.1322 16.7704 16.1322 16.6466V13.1096C16.1322 12.965 16.2494 12.8477 16.3941 12.8477C16.5387 12.8477 16.656 12.9648 16.656 13.1096L16.6558 17.4506C16.6558 17.7051 16.8629 17.9122 17.1174 17.9122C17.2411 17.9122 17.3572 17.8643 17.4443 17.7774C17.5312 17.6903 17.5791 17.5742 17.5791 17.4506V13.1096C17.5791 12.965 17.6962 12.8477 17.841 12.8477C17.9856 12.8477 18.1029 12.9648 18.1029 13.1096L18.1027 16.6059V16.6466C18.1027 16.901 18.3098 17.1081 18.5645 17.1081C18.688 17.1081 18.8038 17.06 18.8913 16.9728C18.9783 16.886 19.0261 16.7703 19.0261 16.6464V13.1094C19.0261 12.9648 19.1432 12.8476 19.288 12.8476C19.4327 12.8476 19.5499 12.9646 19.5499 13.1094L19.5496 15.7793C19.5496 16.0339 19.7567 16.2411 20.0111 16.2411C20.1349 16.2411 20.2507 16.193 20.3376 16.1063C20.4248 16.019 20.4725 15.9029 20.4725 15.7793L20.4727 10.3678C20.4727 8.56304 19.1368 7.09446 17.4947 7.09446L17.4948 7.09441Z"/>
</mask>
<path d="M20.0111 16.7646C19.8435 16.7646 19.6879 16.7185 19.5496 16.6444V16.6463C19.5496 16.91 19.4471 17.1577 19.2612 17.3431C19.0752 17.5291 18.8277 17.6316 18.5643 17.6316C18.3943 17.6316 18.2367 17.5844 18.097 17.5083C18.0828 17.7495 17.9864 17.975 17.8144 18.1472C17.6284 18.3332 17.381 18.4357 17.1174 18.4357C16.5938 18.4357 16.1685 18.024 16.1379 17.5081C15.9759 17.5957 15.7927 17.6416 15.6037 17.6295C15.0886 17.5957 14.6852 17.1506 14.6852 16.616V12.1844L14.1806 13.0586C13.9884 13.393 13.6286 13.6006 13.2412 13.6006C13.0525 13.6006 12.866 13.5511 12.7009 13.4564C12.4952 13.3372 12.3481 13.1458 12.287 12.9169C12.2255 12.6878 12.2573 12.4482 12.3762 12.2429C12.3763 12.2429 14.0273 9.38395 14.128 9.20834C14.1399 9.18194 14.1741 9.10536 14.2031 9.04009C14.2308 8.97777 14.2546 8.91381 14.2774 8.84953C14.7752 7.44397 16.008 6.57087 17.4947 6.57087C19.4254 6.57087 20.9961 8.27408 20.9961 10.3676L20.9963 15.7791C20.9963 16.0425 20.894 16.29 20.7082 16.4761C20.5222 16.6621 20.2747 16.7646 20.0111 16.7646L20.0111 16.7646ZM17.4948 7.09441C16.2172 7.09441 15.199 7.816 14.7708 9.02462C14.7435 9.10137 14.7149 9.17811 14.6816 9.2529C14.585 9.46953 14.585 9.46953 14.5578 9.50069L14.5542 9.49757C14.4194 9.75192 14.0189 10.4454 12.8295 12.5049C12.7806 12.5893 12.7677 12.6874 12.7926 12.7812C12.8179 12.875 12.8784 12.954 12.9622 13.0024C13.2223 13.1518 13.5785 13.0554 13.7267 12.7971L14.7203 11.0768C14.7797 10.9743 14.8997 10.924 15.0149 10.9551C15.1293 10.9858 15.2089 11.0896 15.2089 11.208V16.6161C15.2089 16.8713 15.4014 17.0915 15.6381 17.1071C15.7745 17.1143 15.9018 17.0686 15.9974 16.9731C16.0843 16.8862 16.1322 16.7704 16.1322 16.6466V13.1096C16.1322 12.965 16.2494 12.8477 16.3941 12.8477C16.5387 12.8477 16.656 12.9648 16.656 13.1096L16.6558 17.4506C16.6558 17.7051 16.8629 17.9122 17.1174 17.9122C17.2411 17.9122 17.3572 17.8643 17.4443 17.7774C17.5312 17.6903 17.5791 17.5742 17.5791 17.4506V13.1096C17.5791 12.965 17.6962 12.8477 17.841 12.8477C17.9856 12.8477 18.1029 12.9648 18.1029 13.1096L18.1027 16.6059V16.6466C18.1027 16.901 18.3098 17.1081 18.5645 17.1081C18.688 17.1081 18.8038 17.06 18.8913 16.9728C18.9783 16.886 19.0261 16.7703 19.0261 16.6464V13.1094C19.0261 12.9648 19.1432 12.8476 19.288 12.8476C19.4327 12.8476 19.5499 12.9646 19.5499 13.1094L19.5496 15.7793C19.5496 16.0339 19.7567 16.2411 20.0111 16.2411C20.1349 16.2411 20.2507 16.193 20.3376 16.1063C20.4248 16.019 20.4725 15.9029 20.4725 15.7793L20.4727 10.3678C20.4727 8.56304 19.1368 7.09446 17.4947 7.09446L17.4948 7.09441Z" fill="#4CAF4F" stroke="#4CAF4F" stroke-width="1.85619" mask="url(#path-1-inside-1_211_2338)"/>
<mask id="path-2-inside-2_211_2338" fill="white">
<path d="M9.7214 20.5257L13.5217 18.2459C13.9799 17.9707 14.5695 18.0876 14.8634 18.5122C14.9706 18.6668 15.0254 18.8471 15.0339 19.0306C15.1756 18.9566 15.3298 18.9164 15.4867 18.9164C15.5671 18.9164 15.6477 18.9264 15.7274 18.9463C15.9828 19.0101 16.1979 19.1696 16.3332 19.3953C16.4687 19.6213 16.5082 19.8861 16.4444 20.1411C16.3856 20.3771 16.2421 20.5757 16.0425 20.712C16.182 20.7943 16.3024 20.9067 16.388 21.0497C16.5235 21.2757 16.563 21.5404 16.4994 21.7957C16.4356 22.0507 16.276 22.2659 16.05 22.4015L16.0487 22.4023C16.1858 22.4845 16.304 22.5957 16.3887 22.7365C16.5243 22.9625 16.5638 23.2273 16.5 23.4827C16.4361 23.7378 16.2765 23.953 16.0509 24.0885L11.4106 26.8723C10.5445 27.3916 9.54334 27.5709 8.59186 27.3766C7.63185 27.1804 6.8368 26.6286 6.35337 25.8227C5.58833 24.5477 5.70299 23.0412 6.652 21.8915C6.69546 21.839 6.73827 21.7855 6.77713 21.7301C6.81829 21.6716 6.86634 21.6027 6.88274 21.5791C6.98097 21.4036 8.58386 18.5157 8.58369 18.516C8.74555 18.2239 9.04893 18.0586 9.36183 18.0588C9.50778 18.0588 9.65586 18.0947 9.79248 18.1705C9.95746 18.2626 10.096 18.3969 10.1929 18.5588C10.3922 18.8909 10.3993 19.3065 10.2116 19.6428L9.7214 20.5257ZM9.7442 18.828C9.69336 18.7432 9.6235 18.6757 9.53805 18.6278C9.36144 18.5301 9.13906 18.5937 9.04183 18.7696C7.89488 20.836 7.5039 21.5401 7.35301 21.7907L7.35646 21.7915C7.34383 21.8335 7.34383 21.8335 7.20575 22.0308C7.15885 22.0975 7.10785 22.1617 7.05586 22.2248C6.23981 23.2135 6.14506 24.4577 6.80216 25.5534C7.20919 26.232 7.8819 26.6972 8.69644 26.8635C9.51983 27.0309 10.3877 26.8751 11.1409 26.4232L15.7816 23.6393C15.8876 23.5758 15.9623 23.4749 15.9922 23.3554C16.022 23.236 16.0035 23.1119 15.9399 23.0059C15.809 22.7878 15.5248 22.7162 15.3067 22.8475L13.0174 24.221C12.8934 24.2954 12.7324 24.2554 12.6581 24.1313C12.5836 24.0073 12.6238 23.8464 12.7478 23.7719L15.0373 22.3985L15.7808 21.9524C15.8867 21.8888 15.9617 21.788 15.9915 21.6687C16.0214 21.5492 16.0029 21.4249 15.9392 21.3191C15.8082 21.1008 15.524 21.0298 15.3061 21.1607L12.273 22.9802C12.1487 23.0548 11.9882 23.0145 11.9137 22.8905C11.8393 22.7665 11.8796 22.6056 12.0034 22.5312L15.7259 20.2981C15.8318 20.2345 15.9066 20.1338 15.9364 20.0142C15.9663 19.8949 15.9478 19.7707 15.8843 19.6648C15.8208 19.559 15.72 19.4842 15.6004 19.4544C15.4802 19.4245 15.3566 19.4431 15.251 19.5064L14.5619 19.9198C14.5617 19.9198 14.5617 19.92 14.5615 19.92H14.5614L11.5285 21.7395C11.4042 21.8142 11.2435 21.7739 11.1692 21.6498C11.0947 21.5258 11.1351 21.3649 11.2589 21.2904L14.2919 19.4709C14.3979 19.4073 14.4728 19.3065 14.5027 19.1872C14.5355 19.0564 14.5105 18.9226 14.4328 18.8104C14.298 18.6154 14.0097 18.5636 13.7911 18.6949L9.15376 21.4769C9.05225 21.5376 8.92221 21.5228 8.83709 21.4407C8.75182 21.3583 8.73263 21.229 8.79003 21.1255L9.75431 19.3881C9.85107 19.2145 9.8473 19 9.74415 18.8281L9.7442 18.828Z"/>
</mask>
<path d="M9.7214 20.5257L13.5217 18.2459C13.9799 17.9707 14.5695 18.0876 14.8634 18.5122C14.9706 18.6668 15.0254 18.8471 15.0339 19.0306C15.1756 18.9566 15.3298 18.9164 15.4867 18.9164C15.5671 18.9164 15.6477 18.9264 15.7274 18.9463C15.9828 19.0101 16.1979 19.1696 16.3332 19.3953C16.4687 19.6213 16.5082 19.8861 16.4444 20.1411C16.3856 20.3771 16.2421 20.5757 16.0425 20.712C16.182 20.7943 16.3024 20.9067 16.388 21.0497C16.5235 21.2757 16.563 21.5404 16.4994 21.7957C16.4356 22.0507 16.276 22.2659 16.05 22.4015L16.0487 22.4023C16.1858 22.4845 16.304 22.5957 16.3887 22.7365C16.5243 22.9625 16.5638 23.2273 16.5 23.4827C16.4361 23.7378 16.2765 23.953 16.0509 24.0885L11.4106 26.8723C10.5445 27.3916 9.54334 27.5709 8.59186 27.3766C7.63185 27.1804 6.8368 26.6286 6.35337 25.8227C5.58833 24.5477 5.70299 23.0412 6.652 21.8915C6.69546 21.839 6.73827 21.7855 6.77713 21.7301C6.81829 21.6716 6.86634 21.6027 6.88274 21.5791C6.98097 21.4036 8.58386 18.5157 8.58369 18.516C8.74555 18.2239 9.04893 18.0586 9.36183 18.0588C9.50778 18.0588 9.65586 18.0947 9.79248 18.1705C9.95746 18.2626 10.096 18.3969 10.1929 18.5588C10.3922 18.8909 10.3993 19.3065 10.2116 19.6428L9.7214 20.5257ZM9.7442 18.828C9.69336 18.7432 9.6235 18.6757 9.53805 18.6278C9.36144 18.5301 9.13906 18.5937 9.04183 18.7696C7.89488 20.836 7.5039 21.5401 7.35301 21.7907L7.35646 21.7915C7.34383 21.8335 7.34383 21.8335 7.20575 22.0308C7.15885 22.0975 7.10785 22.1617 7.05586 22.2248C6.23981 23.2135 6.14506 24.4577 6.80216 25.5534C7.20919 26.232 7.8819 26.6972 8.69644 26.8635C9.51983 27.0309 10.3877 26.8751 11.1409 26.4232L15.7816 23.6393C15.8876 23.5758 15.9623 23.4749 15.9922 23.3554C16.022 23.236 16.0035 23.1119 15.9399 23.0059C15.809 22.7878 15.5248 22.7162 15.3067 22.8475L13.0174 24.221C12.8934 24.2954 12.7324 24.2554 12.6581 24.1313C12.5836 24.0073 12.6238 23.8464 12.7478 23.7719L15.0373 22.3985L15.7808 21.9524C15.8867 21.8888 15.9617 21.788 15.9915 21.6687C16.0214 21.5492 16.0029 21.4249 15.9392 21.3191C15.8082 21.1008 15.524 21.0298 15.3061 21.1607L12.273 22.9802C12.1487 23.0548 11.9882 23.0145 11.9137 22.8905C11.8393 22.7665 11.8796 22.6056 12.0034 22.5312L15.7259 20.2981C15.8318 20.2345 15.9066 20.1338 15.9364 20.0142C15.9663 19.8949 15.9478 19.7707 15.8843 19.6648C15.8208 19.559 15.72 19.4842 15.6004 19.4544C15.4802 19.4245 15.3566 19.4431 15.251 19.5064L14.5619 19.9198C14.5617 19.9198 14.5617 19.92 14.5615 19.92H14.5614L11.5285 21.7395C11.4042 21.8142 11.2435 21.7739 11.1692 21.6498C11.0947 21.5258 11.1351 21.3649 11.2589 21.2904L14.2919 19.4709C14.3979 19.4073 14.4728 19.3065 14.5027 19.1872C14.5355 19.0564 14.5105 18.9226 14.4328 18.8104C14.298 18.6154 14.0097 18.5636 13.7911 18.6949L9.15376 21.4769C9.05225 21.5376 8.92221 21.5228 8.83709 21.4407C8.75182 21.3583 8.73263 21.229 8.79003 21.1255L9.75431 19.3881C9.85107 19.2145 9.8473 19 9.74415 18.8281L9.7442 18.828Z" fill="#4CAF4F" stroke="#4CAF4F" stroke-width="1.85619" mask="url(#path-2-inside-2_211_2338)"/>
<mask id="path-3-inside-3_211_2338" fill="white">
<path d="M27.8812 25.8226C27.3979 26.6286 26.6031 27.1803 25.6429 27.3764C24.6912 27.5704 23.6904 27.3915 22.8242 26.8721L18.1835 24.0882C17.9577 23.9527 17.7979 23.7376 17.734 23.482C17.6705 23.227 17.7102 22.9622 17.8455 22.7365C17.9299 22.5955 18.0483 22.4843 18.1856 22.4022L18.1843 22.4013C17.9585 22.2659 17.7988 22.0507 17.7351 21.7955C17.6712 21.5404 17.7109 21.2753 17.8463 21.0494C17.9336 20.9043 18.0531 20.7908 18.1896 20.7102C17.9915 20.574 17.8488 20.376 17.7901 20.1412C17.7261 19.8858 17.7658 19.621 17.9013 19.3953C18.0366 19.1695 18.2519 19.0099 18.5071 18.9462C18.5868 18.9262 18.6676 18.9163 18.7476 18.9163C18.9047 18.9165 19.0589 18.9563 19.2006 19.0305C19.2093 18.8469 19.2639 18.6667 19.3711 18.5121C19.6652 18.0878 20.2542 17.9704 20.7131 18.2457L24.5133 20.5252L24.0235 19.6429C23.8355 19.3061 23.8424 18.8905 24.0417 18.5583C24.1387 18.3966 24.2775 18.2623 24.4433 18.1693C24.5796 18.0939 24.7272 18.0581 24.8728 18.0581C25.1855 18.0583 25.4892 18.2233 25.6509 18.5153C26.2144 19.5306 27.2777 21.4454 27.3525 21.5791C27.3684 21.6022 27.4164 21.6711 27.4576 21.7296C27.4968 21.7852 27.5391 21.8383 27.5829 21.8911C28.5318 23.0414 28.6462 24.5476 27.8812 25.8226L27.8812 25.8226ZM27.1789 22.2249C27.1267 22.1618 27.0755 22.0973 27.029 22.0309C26.8873 21.8298 26.8837 21.8246 26.873 21.7719C26.7074 21.4979 26.3033 20.7705 25.1926 18.7694C25.0952 18.5938 24.8738 18.5296 24.6975 18.627C24.6107 18.6756 24.541 18.7433 24.4902 18.8281C24.3872 18.9998 24.3833 19.2143 24.4805 19.3885L25.4445 21.1253C25.502 21.229 25.4829 21.3582 25.3977 21.4405C25.3128 21.523 25.1829 21.5374 25.0809 21.4768L20.4436 18.6948C20.225 18.5637 19.9368 18.6151 19.8017 18.8102C19.724 18.9224 19.6992 19.0562 19.7317 19.1869C19.7615 19.3063 19.8365 19.407 19.9426 19.4706C19.9429 19.4708 19.9431 19.4711 19.9434 19.4713L22.9755 21.2903C23.0994 21.3647 23.1396 21.5254 23.0652 21.6496C22.9907 21.7734 22.8302 21.8139 22.7059 21.7393L18.9834 19.5062C18.8778 19.4429 18.7535 19.4242 18.6341 19.4542C18.5144 19.4841 18.4137 19.5589 18.3502 19.665C18.2866 19.7707 18.2682 19.8949 18.2977 20.0143C18.3276 20.1337 18.4025 20.2345 18.5085 20.2981L19.2328 20.7326L22.2308 22.5312C22.3547 22.6057 22.3949 22.7664 22.3205 22.8906C22.246 23.0144 22.0855 23.0547 21.9612 22.9803L18.9285 21.1608C18.7104 21.0296 18.4263 21.1007 18.2951 21.3192C18.2315 21.4251 18.2131 21.5493 18.2426 21.6686C18.2725 21.788 18.3474 21.8887 18.4535 21.9525L19.1971 22.3986L21.4862 23.772C21.6102 23.8465 21.6504 24.0072 21.5759 24.1313C21.5015 24.2551 21.3409 24.2958 21.2166 24.221L18.9275 22.8476C18.8219 22.7843 18.6981 22.7656 18.578 22.7956C18.4586 22.8254 18.3576 22.9002 18.2941 23.006C18.2307 23.1119 18.2121 23.2362 18.2417 23.3555C18.2715 23.4748 18.3465 23.5755 18.4526 23.6393L23.0933 26.4232C23.8463 26.8751 24.7148 27.0315 25.5377 26.8636C26.3521 26.6973 27.0248 26.232 27.4319 25.5534C28.0896 24.4576 27.995 23.2133 27.1791 22.2249L27.1789 22.2249Z"/>
</mask>
<path d="M27.8812 25.8226C27.3979 26.6286 26.6031 27.1803 25.6429 27.3764C24.6912 27.5704 23.6904 27.3915 22.8242 26.8721L18.1835 24.0882C17.9577 23.9527 17.7979 23.7376 17.734 23.482C17.6705 23.227 17.7102 22.9622 17.8455 22.7365C17.9299 22.5955 18.0483 22.4843 18.1856 22.4022L18.1843 22.4013C17.9585 22.2659 17.7988 22.0507 17.7351 21.7955C17.6712 21.5404 17.7109 21.2753 17.8463 21.0494C17.9336 20.9043 18.0531 20.7908 18.1896 20.7102C17.9915 20.574 17.8488 20.376 17.7901 20.1412C17.7261 19.8858 17.7658 19.621 17.9013 19.3953C18.0366 19.1695 18.2519 19.0099 18.5071 18.9462C18.5868 18.9262 18.6676 18.9163 18.7476 18.9163C18.9047 18.9165 19.0589 18.9563 19.2006 19.0305C19.2093 18.8469 19.2639 18.6667 19.3711 18.5121C19.6652 18.0878 20.2542 17.9704 20.7131 18.2457L24.5133 20.5252L24.0235 19.6429C23.8355 19.3061 23.8424 18.8905 24.0417 18.5583C24.1387 18.3966 24.2775 18.2623 24.4433 18.1693C24.5796 18.0939 24.7272 18.0581 24.8728 18.0581C25.1855 18.0583 25.4892 18.2233 25.6509 18.5153C26.2144 19.5306 27.2777 21.4454 27.3525 21.5791C27.3684 21.6022 27.4164 21.6711 27.4576 21.7296C27.4968 21.7852 27.5391 21.8383 27.5829 21.8911C28.5318 23.0414 28.6462 24.5476 27.8812 25.8226L27.8812 25.8226ZM27.1789 22.2249C27.1267 22.1618 27.0755 22.0973 27.029 22.0309C26.8873 21.8298 26.8837 21.8246 26.873 21.7719C26.7074 21.4979 26.3033 20.7705 25.1926 18.7694C25.0952 18.5938 24.8738 18.5296 24.6975 18.627C24.6107 18.6756 24.541 18.7433 24.4902 18.8281C24.3872 18.9998 24.3833 19.2143 24.4805 19.3885L25.4445 21.1253C25.502 21.229 25.4829 21.3582 25.3977 21.4405C25.3128 21.523 25.1829 21.5374 25.0809 21.4768L20.4436 18.6948C20.225 18.5637 19.9368 18.6151 19.8017 18.8102C19.724 18.9224 19.6992 19.0562 19.7317 19.1869C19.7615 19.3063 19.8365 19.407 19.9426 19.4706C19.9429 19.4708 19.9431 19.4711 19.9434 19.4713L22.9755 21.2903C23.0994 21.3647 23.1396 21.5254 23.0652 21.6496C22.9907 21.7734 22.8302 21.8139 22.7059 21.7393L18.9834 19.5062C18.8778 19.4429 18.7535 19.4242 18.6341 19.4542C18.5144 19.4841 18.4137 19.5589 18.3502 19.665C18.2866 19.7707 18.2682 19.8949 18.2977 20.0143C18.3276 20.1337 18.4025 20.2345 18.5085 20.2981L19.2328 20.7326L22.2308 22.5312C22.3547 22.6057 22.3949 22.7664 22.3205 22.8906C22.246 23.0144 22.0855 23.0547 21.9612 22.9803L18.9285 21.1608C18.7104 21.0296 18.4263 21.1007 18.2951 21.3192C18.2315 21.4251 18.2131 21.5493 18.2426 21.6686C18.2725 21.788 18.3474 21.8887 18.4535 21.9525L19.1971 22.3986L21.4862 23.772C21.6102 23.8465 21.6504 24.0072 21.5759 24.1313C21.5015 24.2551 21.3409 24.2958 21.2166 24.221L18.9275 22.8476C18.8219 22.7843 18.6981 22.7656 18.578 22.7956C18.4586 22.8254 18.3576 22.9002 18.2941 23.006C18.2307 23.1119 18.2121 23.2362 18.2417 23.3555C18.2715 23.4748 18.3465 23.5755 18.4526 23.6393L23.0933 26.4232C23.8463 26.8751 24.7148 27.0315 25.5377 26.8636C26.3521 26.6973 27.0248 26.232 27.4319 25.5534C28.0896 24.4576 27.995 23.2133 27.1791 22.2249L27.1789 22.2249Z" fill="#4CAF4F" stroke="#4CAF4F" stroke-width="1.85619" mask="url(#path-3-inside-3_211_2338)"/>
</svg>
